<?xml version="1.0" standalone="no"?>
<!DOCTYPE svg PUBLIC "-//W3C//DTD SVG 20010904//EN"
 "http://www.w3.org/TR/2001/REC-SVG-20010904/DTD/svg10.dtd">
<svg version="1.0" xmlns="http://www.w3.org/2000/svg"
 width="1817.000000pt" height="1817.000000pt" viewBox="0 0 1817.000000 1817.000000"
 preserveAspectRatio="xMidYMid meet">
<metadata>
Created by potrace 1.14, written by Peter Selinger 2001-2017
</metadata>
<g transform="translate(0.000000,1817.000000) scale(0.100000,-0.100000)"
fill="#000000" stroke="none">
<path d="M9027 17894 c-1 -1 -76 -5 -167 -9 -91 -3 -185 -8 -210 -10 -67 -5
-210 -16 -250 -20 -155 -14 -187 -18 -205 -21 -11 -2 -45 -6 -76 -9 -31 -3
-66 -8 -79 -10 -12 -2 -48 -7 -79 -10 -31 -4 -63 -8 -71 -10 -8 -2 -37 -7 -65
-11 -27 -3 -59 -8 -70 -10 -11 -2 -33 -6 -50 -9 -16 -3 -41 -7 -55 -10 -14 -3
-41 -7 -60 -10 -19 -3 -91 -17 -160 -31 -69 -14 -136 -28 -150 -30 -14 -3 -54
-12 -90 -20 -36 -9 -74 -17 -85 -20 -20 -4 -120 -29 -160 -40 -11 -3 -30 -7
-41 -9 -70 -15 -409 -116 -584 -175 -619 -207 -1208 -477 -1770 -813 -74 -44
-136 -84 -138 -89 -2 -4 -8 -8 -14 -8 -17 0 -339 -217 -515 -347 -159 -117
-366 -278 -439 -342 -22 -20 -67 -58 -100 -86 -59 -50 -109 -95 -219 -195 -98
-89 -464 -458 -550 -554 -44 -49 -87 -96 -95 -105 -8 -9 -49 -57 -90 -106 -41
-50 -77 -92 -80 -95 -3 -3 -49 -59 -101 -125 -165 -209 -347 -460 -458 -630
-28 -44 -56 -87 -61 -95 -112 -170 -293 -483 -377 -650 -21 -41 -40 -77 -43
-80 -3 -3 -29 -52 -57 -110 -281 -573 -478 -1103 -653 -1760 -39 -144 -109
-459 -134 -605 -3 -16 -8 -41 -11 -55 -18 -88 -80 -518 -90 -625 -3 -27 -7
-66 -9 -85 -22 -161 -47 -572 -48 -805 -1 -121 8 -361 17 -475 1 -19 6 -84 10
-145 4 -60 9 -119 11 -129 2 -11 6 -49 9 -85 2 -36 7 -82 9 -101 3 -19 7 -60
11 -90 3 -30 8 -62 10 -70 3 -13 14 -94 20 -155 2 -20 14 -91 21 -130 3 -11 6
-36 9 -55 3 -19 11 -71 20 -115 8 -44 17 -93 20 -110 3 -16 8 -41 11 -55 3
-14 8 -36 10 -50 7 -41 44 -206 79 -350 182 -745 459 -1467 820 -2135 168
-312 439 -741 616 -978 33 -43 59 -80 59 -83 0 -7 220 -284 329 -414 181 -215
277 -318 515 -555 254 -253 289 -286 451 -424 61 -52 112 -97 115 -100 3 -4
33 -29 68 -56 35 -28 73 -59 85 -69 56 -48 416 -313 543 -399 179 -121 574
-367 589 -367 2 0 28 -14 57 -31 102 -61 586 -309 602 -309 2 0 42 -17 88 -39
339 -157 895 -360 1253 -456 283 -77 569 -145 705 -169 14 -2 48 -9 75 -15 28
-6 66 -13 85 -15 19 -3 46 -8 60 -11 24 -5 51 -9 126 -20 20 -3 39 -7 43 -9 3
-2 37 -7 76 -11 38 -4 72 -8 76 -10 3 -2 30 -7 60 -10 30 -3 70 -7 89 -10 64
-9 204 -23 385 -40 424 -38 862 -35 1330 9 22 3 74 7 115 11 41 4 82 8 90 10
8 2 44 6 80 9 36 4 75 8 85 10 11 2 43 7 70 10 56 8 107 15 145 21 14 3 42 7
64 10 21 4 46 8 55 10 9 1 36 6 61 10 25 4 54 9 65 11 11 2 34 7 50 10 40 7
316 64 335 68 8 3 56 14 105 25 81 19 141 34 185 46 8 2 56 15 105 28 319 88
737 226 940 312 17 7 77 32 135 55 294 121 777 355 940 455 19 12 42 24 50 28
8 4 33 18 55 32 22 13 49 29 60 35 20 10 30 16 182 109 314 193 807 551 1052
766 274 239 548 502 762 730 86 92 249 280 330 380 35 44 66 82 69 85 11 9
176 225 200 260 13 19 27 37 30 40 21 17 244 344 360 530 29 47 60 96 69 110
28 44 40 65 47 80 4 8 18 31 30 51 99 159 314 578 429 834 7 17 26 59 42 95
16 36 58 137 92 225 35 88 67 168 72 177 8 16 65 173 75 208 2 8 22 67 43 130
35 100 106 327 116 370 2 8 20 76 41 150 20 74 37 142 39 150 2 8 12 51 24 95
11 44 22 91 25 105 3 14 20 99 39 190 20 91 38 183 41 205 6 37 21 124 30 170
2 11 7 43 10 70 4 28 9 57 11 65 2 8 6 40 10 71 3 31 7 65 9 75 2 11 7 48 11
84 4 36 9 72 10 81 2 9 6 52 10 95 4 43 8 90 10 104 3 14 7 66 10 115 3 50 8
110 10 135 25 291 21 771 -10 1085 -2 28 -7 82 -10 120 -3 39 -8 81 -10 95 -3
14 -7 54 -10 90 -3 36 -7 75 -9 87 -3 12 -7 46 -10 75 -4 29 -8 64 -11 78 -2
14 -6 45 -9 70 -3 25 -8 54 -10 66 -2 12 -7 45 -11 75 -4 30 -8 56 -10 59 -2
3 -6 25 -9 50 -3 25 -8 56 -11 70 -3 14 -10 48 -15 75 -6 28 -12 59 -14 70
-97 470 -190 813 -337 1245 -22 63 -44 124 -49 135 -5 11 -20 52 -34 90 -105
297 -329 787 -505 1109 -39 71 -71 130 -71 132 0 5 -180 304 -249 413 -180
284 -400 587 -647 890 -10 13 -26 31 -34 40 -9 9 -40 46 -69 81 -100 121 -234
264 -456 485 -279 278 -403 391 -645 589 -52 42 -103 83 -112 91 -191 155
-635 461 -903 622 -387 232 -930 501 -1270 628 -33 12 -114 43 -180 68 -145
54 -357 126 -480 162 -49 15 -119 36 -155 46 -56 17 -262 71 -317 84 -10 2
-67 16 -128 30 -60 14 -119 27 -130 29 -11 3 -76 16 -145 30 -69 14 -143 28
-165 31 -49 8 -83 13 -112 19 -12 3 -73 12 -135 21 -62 9 -124 18 -138 20 -14
2 -50 7 -80 10 -30 3 -66 8 -80 10 -14 2 -59 7 -100 10 -41 4 -82 9 -91 10 -9
2 -63 6 -120 10 -57 4 -120 8 -139 10 -113 11 -695 26 -703 19z"/>
</g>
</svg>
