<?xml version="1.0" standalone="no"?>
<!DOCTYPE svg PUBLIC "-//W3C//DTD SVG 20010904//EN"
 "http://www.w3.org/TR/2001/REC-SVG-20010904/DTD/svg10.dtd">
<svg version="1.0" xmlns="http://www.w3.org/2000/svg"
 width="400.000000pt" height="400.000000pt" viewBox="0 0 400.000000 400.000000"
 preserveAspectRatio="xMidYMid meet">
<metadata>
Created by potrace 1.14, written by Peter Selinger 2001-2017
</metadata>
<g transform="translate(0.000000,400.000000) scale(0.100000,-0.100000)"
fill="#000000" stroke="none">
<path d="M601 2667 c-117 -14 -297 -103 -355 -174 -17 -21 -38 -46 -47 -55
-36 -41 -105 -177 -121 -242 -10 -38 -16 -71 -14 -74 3 -2 47 -4 98 -4 138 1
152 1 146 7 -13 13 25 154 61 230 48 99 137 189 199 201 95 19 280 6 364 -26
71 -26 91 -49 124 -140 33 -91 36 -95 68 -98 31 -2 29 -13 31 165 l1 143 -50
14 c-130 37 -163 43 -261 52 -115 9 -177 10 -244 1z"/>
<path d="M1439 2645 c-1 0 -3 -12 -5 -27 -3 -29 -7 -27 106 -56 19 -4 40 -17
45 -28 6 -12 10 -104 9 -217 l-1 -197 29 -1 c15 0 48 0 73 0 25 0 63 0 85 0
l40 1 2 218 3 217 224 1 c162 0 227 -3 236 -12 6 -7 29 -60 50 -119 38 -106
38 -106 69 -103 l31 3 0 160 0 160 -498 0 c-273 0 -498 0 -498 0z"/>
<path d="M2640 2618 c0 -24 6 -28 54 -42 30 -9 61 -16 69 -16 9 0 23 -7 31
-16 14 -13 16 -47 16 -220 l0 -205 57 3 57 3 -1 133 c-1 130 6 159 25 105 5
-16 25 -46 43 -68 19 -23 54 -71 78 -108 l43 -67 79 -1 c44 0 93 -1 109 -1 88
0 86 -6 28 75 -29 39 -67 90 -85 113 -18 23 -33 45 -33 51 0 11 -118 183 -136
198 -6 6 -23 28 -38 50 l-26 40 -185 0 -185 0 0 -27z"/>
<path d="M3529 2640 c0 -3 -2 -15 -4 -26 -4 -18 3 -24 48 -37 28 -9 64 -19 80
-23 15 -3 29 -10 32 -14 2 -4 5 -99 5 -212 l1 -206 27 -4 c15 -2 38 -1 52 2
l25 5 -1 190 c0 105 3 200 7 212 5 13 20 25 36 29 15 3 49 12 75 21 40 12 47
18 44 36 -3 12 -5 24 -5 27 -1 7 -421 7 -422 0z"/>
<path d="M2201 2238 c-5 -13 -16 -40 -25 -62 -9 -21 -16 -43 -16 -48 0 -5 21
-8 48 -6 l47 3 0 68 c0 63 -1 67 -23 67 -14 0 -26 -8 -31 -22z"/>
<path d="M278 2078 c-9 -27 -2 -102 10 -106 7 -2 12 6 12 21 0 17 7 26 21 30
16 4 20 12 17 34 -2 22 -9 29 -29 31 -15 2 -28 -2 -31 -10z m42 -23 c0 -8 -4
-15 -9 -15 -5 0 -11 7 -15 15 -3 9 0 15 9 15 8 0 15 -7 15 -15z"/>
<path d="M464 2030 c0 -37 4 -59 11 -57 5 2 9 14 9 26 -1 17 3 21 20 19 15 -2
21 -10 20 -25 -1 -25 11 -31 18 -10 4 10 3 74 -1 100 -3 20 -19 3 -16 -19 2
-20 -1 -25 -19 -22 -11 2 -22 9 -22 16 -3 29 -4 32 -12 32 -4 0 -8 -27 -8 -60z"/>
<path d="M694 2082 c-6 -4 -16 -16 -22 -27 -15 -29 11 -80 41 -83 26 -2 68 18
61 29 -2 4 0 10 5 14 12 7 4 33 -17 58 -16 18 -49 22 -68 9z m50 -18 c29 -11
17 -74 -14 -74 -41 0 -59 50 -26 72 13 9 20 10 40 2z"/>
<path d="M890 2080 c0 -5 5 -10 10 -10 6 0 10 -22 10 -50 0 -27 5 -50 10 -50
6 0 10 23 10 50 0 28 5 50 10 50 6 0 10 5 10 10 0 6 -13 10 -30 10 -16 0 -30
-4 -30 -10z"/>
<path d="M1081 2068 c-34 -36 -6 -97 45 -98 26 0 54 30 54 58 0 27 -33 62 -60
62 -10 0 -28 -10 -39 -22z m73 -31 c11 -30 -2 -47 -37 -47 -22 0 -38 39 -25
63 14 27 51 18 62 -16z"/>
<path d="M1313 2070 c-12 -10 -20 -27 -18 -37 2 -10 4 -21 4 -25 2 -16 34 -38
55 -38 24 0 56 28 56 48 0 7 -13 12 -30 12 -16 0 -30 -4 -30 -10 0 -5 10 -10
22 -10 16 0 19 -3 11 -11 -17 -17 -60 -3 -66 21 -8 30 20 53 55 46 30 -6 39 8
12 18 -28 11 -50 6 -71 -14z"/>
<path d="M1533 2030 c-1 -33 3 -60 8 -60 8 0 13 21 10 45 -1 11 26 -22 32 -39
2 -6 7 -8 11 -4 4 3 2 17 -5 29 -9 17 -9 24 0 27 15 5 14 35 -1 50 -7 7 -21
12 -33 12 -18 0 -21 -6 -22 -60z m47 31 c0 -12 -20 -25 -27 -18 -7 7 6 27 18
27 5 0 9 -4 9 -9z"/>
<path d="M1737 2030 c-14 -33 -22 -60 -17 -60 5 0 12 5 15 10 3 6 17 10 30 10
13 0 27 -4 30 -10 3 -5 10 -10 15 -10 5 0 -1 27 -13 60 -12 33 -25 60 -28 60
-3 0 -17 -27 -32 -60z m43 -6 c0 -8 -7 -14 -15 -14 -17 0 -18 2 -9 24 7 18 24
12 24 -10z"/>
<path d="M1938 2078 c-4 -11 -3 -75 1 -100 0 -5 6 -8 11 -8 6 0 8 11 6 25 -4
19 0 25 14 25 25 0 41 29 29 52 -11 21 -55 24 -61 6z m45 -23 c0 -6 -7 -11
-16 -13 -12 -3 -15 1 -11 13 7 17 25 17 27 0z"/>
<path d="M2124 2030 c1 -35 5 -59 11 -57 5 2 9 14 9 26 -1 17 3 21 20 19 15
-2 20 -9 19 -26 -2 -12 3 -22 10 -22 9 0 13 18 13 60 0 43 -4 60 -13 60 -9 0
-12 -9 -9 -25 4 -21 1 -25 -18 -25 -18 0 -23 5 -22 22 0 11 -4 23 -10 25 -6 2
-10 -18 -10 -57z"/>
<path d="M2330 2086 c0 -2 7 -20 15 -40 9 -20 14 -44 13 -53 -2 -9 2 -18 8
-20 6 -2 11 9 12 26 0 16 8 43 17 60 8 17 11 31 6 31 -6 0 -16 -10 -22 -22
l-12 -23 -10 23 c-8 18 -27 31 -27 18z"/>
<path d="M2677 2083 c-13 -12 -7 -37 15 -60 23 -24 18 -44 -6 -24 -9 8 -16 8
-20 2 -8 -13 31 -34 50 -27 20 8 17 40 -6 61 -23 21 -26 40 -5 32 8 -4 17 -2
20 2 8 15 -35 27 -48 14z"/>
<path d="M2840 2084 c0 -3 6 -12 14 -19 8 -8 12 -30 10 -55 -2 -28 1 -40 9
-37 6 2 11 23 11 48 1 27 6 49 16 56 12 10 9 12 -22 13 -21 0 -38 -3 -38 -6z"/>
<path d="M3018 2058 c-7 -68 21 -104 61 -79 17 11 24 114 7 108 -6 -2 -11 -23
-11 -48 0 -34 -4 -44 -17 -47 -19 -4 -21 2 -20 61 1 45 -15 50 -20 5z"/>
<path d="M3219 2075 c0 -8 -1 -31 -1 -50 0 -19 1 -40 1 -46 1 -6 15 -9 34 -7
53 5 74 61 37 98 -24 24 -70 27 -71 5z m59 -18 c19 -22 3 -67 -24 -67 -10 0
-14 12 -14 40 0 41 17 53 38 27z"/>
<path d="M3429 2078 c-6 -60 -2 -108 9 -108 8 0 12 19 12 60 0 33 -4 60 -10
60 -5 0 -11 -6 -11 -12z"/>
<path d="M3592 2074 c-49 -34 -8 -115 51 -100 32 8 51 50 36 79 -22 40 -50 47
-87 21z m66 -21 c13 -24 -3 -63 -26 -63 -22 0 -42 19 -42 40 0 38 52 55 68 23z"/>
<path d="M59 1920 c-1 -3 -1 -7 -1 -10 15 -291 245 -550 520 -586 87 -12 213
-7 317 11 43 8 204 54 241 70 l32 13 -2 178 c-1 99 2 191 7 207 8 23 20 31 82
49 63 19 73 24 73 45 0 25 5 24 -213 24 -30 0 -122 0 -205 0 l-150 -1 0 -24
c0 -22 7 -26 74 -41 108 -24 108 -24 108 -205 1 -174 7 -163 -107 -201 -82
-28 -209 -33 -265 -10 -59 24 -144 105 -177 168 -37 69 -71 176 -79 247 -3 28
-9 54 -13 58 -8 9 -240 16 -242 8z"/>
<path d="M1599 1920 c-1 -3 -3 -105 -4 -227 -2 -156 -6 -227 -14 -237 -7 -8
-43 -24 -80 -36 -55 -17 -67 -24 -68 -42 -1 -12 2 -25 7 -28 6 -4 1012 -5
1055 -1 7 1 10 63 10 174 l0 172 -25 3 c-24 3 -27 -3 -63 -117 -21 -66 -44
-124 -51 -130 -7 -6 -112 -10 -279 -10 l-267 1 0 239 0 239 -47 1 c-27 0 -76
1 -111 2 -34 1 -63 0 -63 -3z"/>
<path d="M3298 1922 l-47 -3 62 -85 c68 -94 122 -173 179 -261 21 -32 48 -70
60 -84 13 -15 43 -55 66 -91 l44 -64 49 2 c27 0 51 3 53 5 3 2 8 31 11 64 4
33 10 78 14 100 3 22 6 123 6 225 l0 185 -48 5 c-26 4 -50 4 -52 1 -3 -2 -5
-59 -5 -125 l0 -121 -27 40 c-14 22 -30 42 -34 45 -4 3 -30 39 -58 80 l-52 75
-87 5 c-48 3 -108 4 -134 2z"/>
<path d="M2165 1903 c4 -10 15 -39 24 -65 13 -38 21 -48 39 -48 25 0 24 -3 26
73 l1 57 -48 0 c-43 0 -48 -2 -42 -17z"/>
<path d="M2810 1697 c0 -256 5 -241 -95 -275 -54 -18 -60 -23 -60 -48 l0 -28
200 -1 c110 0 208 1 217 3 11 3 15 11 12 25 -5 28 -11 33 -75 51 -31 9 -63 23
-70 32 -11 13 -14 66 -16 233 -1 119 -2 219 -2 224 -1 4 -26 7 -56 7 l-55 0 0
-223z"/>
</g>
</svg>
